<svg xmlns="http://www.w3.org/2000/svg" xmlns:xlink="http://www.w3.org/1999/xlink" width="100" height="100" viewBox="0 0 100 100"><g><g transform="translate(50 50) scale(0.69 0.69) rotate(0) translate(-50 -50)" style="fill:#000000;"><svg fill="#000000" xmlns="http://www.w3.org/2000/svg" xmlns:xlink="http://www.w3.org/1999/xlink" xml:space="preserve" version="1.1" style="shape-rendering:geometricPrecision;text-rendering:geometricPrecision;image-rendering:optimizeQuality;" viewBox="0 0 8203 7707" x="0px" y="0px" fill-rule="evenodd" clip-rule="evenodd"><defs><style type="text/css">
   
    .fil1 {fill:#000000}
    .fil0 {fill:#000000;fill-rule:nonzero}
   
  </style></defs><g><path class="fil0" d="M2881 1537c724,-763 2019,-566 2446,393 844,-771 2255,-59 2082,1109 1175,389 1096,2281 -571,2281 -195,304 -531,517 -988,513l-4419 0c-834,6 -1412,-579 -1431,-1391 -18,-793 513,-1426 1333,-1463 6,-123 25,-238 55,-346 -846,-284 -1040,-1392 -356,-1951 719,-589 1831,-98 1849,855l0 0zm-72 215c-814,21 -1311,579 -1311,1392 -783,0 -1335,457 -1332,1267 3,730 512,1262 1264,1256l4420 0c385,3 667,-169 834,-415 394,-578 141,-1373 -554,-1561l-75 -20c92,-453 12,-823 -356,-1130 -616,-455 -1153,-282 -1596,209 -217,-609 -599,-1010 -1294,-998l0 0zm-1367 724c216,-524 723,-846 1272,-887 20,-820 -943,-1289 -1567,-799 -597,470 -432,1443 295,1686l0 0zm3791 -330c-174,-489 -516,-819 -1041,-894 -406,-58 -838,67 -1139,349 494,70 901,370 1112,842 309,-262 642,-380 1068,-297l0 0zm94 22c626,175 983,737 919,1384 679,231 962,960 681,1602 1329,5 1512,-1667 290,-1997 249,-1224 -1120,-1841 -1890,-989z"></path><polygon class="fil1" points="1532,0 1674,376 1495,400 "></polygon><polygon class="fil1" points="778,315 1089,570 946,680 "></polygon><polygon class="fil1" points="284,964 680,1030 612,1197 "></polygon><polygon class="fil1" points="180,1774 556,1632 580,1811 "></polygon><polygon class="fil1" points="495,2528 750,2217 860,2360 "></polygon><polygon class="fil1" points="2991,599 2736,910 2626,767 "></polygon><polygon class="fil1" points="2342,104 2277,500 2109,432 "></polygon><polygon class="fil1" points="1532,0 1674,376 1495,400 "></polygon><polygon class="fil1" points="778,315 1089,570 946,680 "></polygon><polygon class="fil1" points="2991,599 2736,910 2626,767 "></polygon><polygon class="fil1" points="2342,104 2277,500 2109,432 "></polygon><path class="fil0" d="M1417 6001c5,0 10,0 14,1 18,3 32,12 42,24 10,13 16,29 16,47l0 0c0,4 0,10 -1,15l-18 98 -20 113 -4 24c-12,63 -23,126 -35,188 -4,24 -18,45 -36,61 -18,15 -41,25 -64,25 -5,0 -10,-1 -15,-1 -17,-4 -31,-12 -41,-24 -10,-13 -15,-28 -15,-46 0,-5 0,-11 1,-16l38 -212 38 -211c5,-24 18,-46 36,-61 18,-16 40,-25 64,-25z"></path><path class="fil0" d="M2417 6001c5,0 10,0 14,1 18,3 32,12 42,24 10,13 16,29 16,47 0,5 0,10 -1,15l-38 212 -39 211c-4,24 -17,45 -36,61 -18,15 -41,25 -65,25 -5,0 -9,0 -14,-1 -17,-3 -32,-12 -42,-24 -10,-13 -16,-29 -16,-47 0,-5 0,-10 1,-15l38 -212 39 -211c4,-24 18,-45 36,-61 18,-15 41,-25 65,-25z"></path><path class="fil0" d="M4415 6001c5,0 10,0 14,1 18,3 32,12 42,25 11,12 17,28 17,46 0,5 -1,10 -2,16l-39 212c-6,33 -12,69 -19,105 -6,36 -12,71 -18,106 -4,23 -18,45 -36,60 -18,16 -42,25 -65,25 -6,0 -10,0 -15,-1 -18,-3 -32,-12 -42,-24 -11,-13 -17,-29 -17,-46l0 0c0,-5 1,-10 2,-15 9,-50 18,-101 27,-151l11 -61 39 -212c4,-23 18,-45 36,-61 18,-15 42,-25 65,-25l0 0z"></path><path class="fil0" d="M5416 6001c5,0 10,0 14,1 18,3 33,12 44,25 10,13 16,29 16,47 0,5 0,10 -1,15l0 0 -39 212 -38 211c-5,24 -19,45 -37,60 -19,16 -43,26 -67,26 -5,0 -10,-1 -15,-2l0 0c-17,-3 -32,-12 -42,-24l0 0c-10,-12 -16,-28 -16,-46l0 0c0,-5 1,-10 2,-15l0 0 38 -211 39 -212c4,-24 18,-46 36,-62 19,-15 42,-25 66,-25z"></path><path class="fil0" d="M1275 6789c5,0 9,1 14,2 17,3 31,11 42,24 10,12 15,28 15,46 0,5 0,10 -1,15l-38 212 -38 211c-4,24 -18,45 -36,60 -18,15 -41,25 -64,25 -5,0 -10,-1 -15,-2 -17,-3 -31,-11 -41,-23 -10,-12 -15,-28 -15,-45 0,-5 0,-10 1,-16l27 -147 11 -64 38 -212c5,-24 18,-45 36,-61 18,-15 40,-25 64,-25l0 0z"></path><path class="fil0" d="M2275 6789c4,0 9,0 14,1 17,3 31,12 41,24 10,13 16,28 16,46 0,5 -1,10 -1,16l-33 179 -6 33 -38 211c-4,24 -18,45 -36,60 -18,15 -41,25 -65,25 -5,0 -10,-1 -14,-2 -18,-3 -32,-11 -42,-23 -11,-13 -16,-28 -16,-46 0,-5 0,-10 1,-15l38 -211c7,-36 13,-71 19,-106 7,-36 14,-71 20,-106 5,-24 18,-45 37,-61 18,-15 41,-25 65,-25z"></path><path class="fil0" d="M4272 6789c5,0 10,0 15,1 17,3 32,12 42,24 10,13 16,28 16,46l0 0c0,5 0,10 -1,15l-20 109 -19 103 -39 211c-4,24 -17,45 -36,61 -18,15 -41,25 -65,25 -5,0 -10,-1 -15,-2 -17,-3 -31,-11 -41,-24 -10,-12 -16,-28 -16,-45 0,-5 0,-10 1,-16l39 -211 39 -212c4,-23 17,-45 35,-60 19,-15 42,-25 65,-25z"></path><path class="fil0" d="M5272 6789c5,0 10,0 15,1l0 0c17,3 32,12 43,24 10,13 16,29 16,47 0,4 0,9 -1,14l-38 212 -39 211c-5,24 -18,45 -37,60 -19,16 -43,26 -67,26 -5,0 -10,-1 -14,-2 -18,-3 -32,-11 -42,-24 -10,-12 -16,-28 -16,-45 0,-5 1,-11 2,-16l38 -212c7,-33 13,-69 19,-105 7,-36 13,-71 19,-106 4,-23 18,-45 36,-60 19,-16 42,-25 66,-25z"></path><path class="fil0" d="M2876 6962c137,0 275,0 412,0l-339 745 764 -942c-143,0 -286,0 -428,0l366 -764 -336 0 -439 961z"></path></g></svg></g></g></svg>